<svg width="32" height="32" viewBox="0 0 32 32" fill="none" xmlns="http://www.w3.org/2000/svg">
<path d="M16 23.15C15.7333 23.15 15.4833 23.1083 15.25 23.025C15.0167 22.9417 14.8 22.8 14.6 22.6L7.4 15.4C7 15 6.80833 14.5333 6.825 14C6.84167 13.4667 7.03333 13 7.4 12.6C7.8 12.2 8.275 11.9917 8.825 11.975C9.375 11.9583 9.85 12.15 10.25 12.55L14 16.3V2C14 1.43333 14.1917 0.958333 14.575 0.575C14.9583 0.191667 15.4333 0 16 0C16.5667 0 17.0417 0.191667 17.425 0.575C17.8083 0.958333 18 1.43333 18 2V16.3L21.75 12.55C22.15 12.15 22.625 11.9583 23.175 11.975C23.725 11.9917 24.2 12.2 24.6 12.6C24.9667 13 25.1583 13.4667 25.175 14C25.1917 14.5333 25 15 24.6 15.4L17.4 22.6C17.2 22.8 16.9833 22.9417 16.75 23.025C16.5167 23.1083 16.2667 23.15 16 23.15ZM4 32C2.9 32 1.95833 31.6083 1.175 30.825C0.391667 30.0417 0 29.1 0 28V24C0 23.4333 0.191667 22.9583 0.575 22.575C0.958333 22.1917 1.43333 22 2 22C2.56667 22 3.04167 22.1917 3.425 22.575C3.80833 22.9583 4 23.4333 4 24V28H28V24C28 23.4333 28.1917 22.9583 28.575 22.575C28.9583 22.1917 29.4333 22 30 22C30.5667 22 31.0417 22.1917 31.425 22.575C31.8083 22.9583 32 23.4333 32 24V28C32 29.1 31.6083 30.0417 30.825 30.825C30.0417 31.6083 29.1 32 28 32H4Z" fill="black"/>
</svg>
