<svg width="41" height="28" viewBox="0 0 41 28" fill="none" xmlns="http://www.w3.org/2000/svg">
<path d="M7.1354 16.0833H38.75C39.3403 16.0833 39.835 15.8837 40.2344 15.4844C40.6337 15.0851 40.8333 14.5903 40.8333 14C40.8333 13.4097 40.6337 12.9149 40.2344 12.5156C39.835 12.1163 39.3403 11.9167 38.75 11.9167H7.1354L15.2083 3.79168C15.5903 3.40973 15.7899 2.9323 15.8073 2.35939C15.8246 1.78647 15.625 1.29168 15.2083 0.87501C14.8264 0.493066 14.3403 0.302094 13.75 0.302094C13.1597 0.302094 12.6736 0.493066 12.2916 0.87501L0.62498 12.5417C0.416646 12.75 0.269077 12.9757 0.182271 13.2188C0.0954658 13.4618 0.052063 13.7222 0.052063 14C0.052063 14.2778 0.0954658 14.5382 0.182271 14.7813C0.269077 15.0243 0.416646 15.25 0.62498 15.4583L12.2916 27.125C12.6736 27.507 13.151 27.6979 13.7239 27.6979C14.2969 27.6979 14.7916 27.507 15.2083 27.125C15.625 26.7083 15.8333 26.2136 15.8333 25.6406C15.8333 25.0677 15.625 24.5729 15.2083 24.1563L7.1354 16.0833Z" fill="black"/>
</svg>
